<svg width="43" height="47" viewBox="0 0 43 47" fill="none" xmlns="http://www.w3.org/2000/svg">
<g clip-path="url(#clip0_147_5344)">
<path d="M21.315 10.9029C20.1785 10.9054 19.0669 10.57 18.1214 9.93931C17.1759 9.30865 16.4392 8.4112 16.0048 7.36095C15.5705 6.31071 15.4581 5.15505 15.6819 4.04079C15.9058 2.92653 16.4558 1.90394 17.262 1.10292" stroke="#0052CC" stroke-width="0.917" stroke-miterlimit="10" stroke-linecap="round"/>
<path d="M25.361 1.11693C26.1668 1.91753 26.7167 2.93948 26.9407 4.05308C27.1648 5.16669 27.053 6.32176 26.6195 7.37172C26.186 8.42168 25.4504 9.3192 24.506 9.95039C23.5616 10.5816 22.4509 10.918 21.315 10.9169" stroke="#0065FF" stroke-width="0.917" stroke-miterlimit="10" stroke-linecap="round"/>
<path d="M21.056 23.7619H5.69102C4.30356 23.7619 2.97282 23.2112 1.99108 22.2308C1.00934 21.2504 0.456872 19.9204 0.455017 18.5329V18.5329" stroke="#0052CC" stroke-width="0.903" stroke-miterlimit="10" stroke-linecap="round"/>
<path d="M42.168 18.5329C42.1662 19.9204 41.6137 21.2504 40.632 22.2308C39.6502 23.2112 38.3195 23.7619 36.932 23.7619H21.056" stroke="#0065FF" stroke-width="0.903" stroke-miterlimit="10" stroke-linecap="round"/>
<path d="M21.056 29.7049H42.168" stroke="#0065FF" stroke-width="0.903" stroke-miterlimit="10" stroke-linecap="round"/>
<path d="M0.455017 29.7049H21.056" stroke="#0052CC" stroke-width="0.903" stroke-miterlimit="10" stroke-linecap="round"/>
<path d="M21.056 35.6619H5.69102C4.30477 35.6619 2.97509 36.2116 1.99355 37.1905C1.01201 38.1695 0.458724 39.4977 0.455017 40.8839V40.8839" stroke="#0052CC" stroke-width="0.903" stroke-miterlimit="10" stroke-linecap="round"/>
<path d="M42.168 40.8839C42.1643 39.4977 41.611 38.1695 40.6295 37.1905C39.648 36.2116 38.3183 35.6619 36.932 35.6619H21.056" stroke="#0065FF" stroke-width="0.903" stroke-miterlimit="10" stroke-linecap="round"/>
<path d="M20.104 13.1219H22.519C24.9702 13.1219 27.3212 14.0952 29.0551 15.8278C30.7891 17.5605 31.7641 19.9107 31.766 22.3619V27.1919H10.857V22.3619C10.8589 19.9107 11.8339 17.5605 13.5679 15.8278C15.3018 14.0952 17.6527 13.1219 20.104 13.1219V13.1219Z" fill="#253858"/>
<path d="M21.315 14.4099H13.44C13.364 14.4091 13.289 14.3929 13.2195 14.3621C13.15 14.3314 13.0875 14.2869 13.0357 14.2312C12.984 14.1755 12.9441 14.1099 12.9186 14.0384C12.893 13.9668 12.8823 13.8908 12.887 13.8149C13.0373 11.6879 13.9869 9.69652 15.5452 8.2409C17.1034 6.78527 19.1547 5.97323 21.287 5.96793V5.96793L21.315 14.4099Z" fill="url(#paint0_linear_147_5344)"/>
<path d="M21.308 5.96793C23.4408 5.97159 25.493 6.78307 27.0516 8.23903C28.6102 9.69498 29.5593 11.6873 29.708 13.8149C29.7138 13.891 29.7038 13.9675 29.6786 14.0395C29.6534 14.1115 29.6136 14.1775 29.5616 14.2334C29.5097 14.2893 29.4468 14.3338 29.3768 14.3642C29.3068 14.3946 29.2313 14.4101 29.155 14.4099H21.315L21.308 5.96793Z" fill="url(#paint1_linear_147_5344)"/>
<path d="M28.994 15.8869C26.9518 15.8869 24.9933 16.6982 23.5493 18.1422C22.1053 19.5862 21.294 21.5448 21.294 23.5869V46.6169C25.3783 46.6169 29.2954 44.9944 32.1835 42.1064C35.0715 39.2183 36.694 35.3013 36.694 31.2169V18.3159C36.694 17.6717 36.4381 17.0539 35.9826 16.5984C35.527 16.1428 34.9092 15.8869 34.265 15.8869H28.994Z" fill="url(#paint2_linear_147_5344)"/>
<path d="M31.213 24.3429L27.076 20.1989L21.315 25.9599L15.547 20.1989L11.41 24.3429L17.171 30.1039L11.41 35.8649L15.547 40.0089L21.315 34.2409L27.076 40.0089L31.213 35.8649L25.452 30.1039L31.213 24.3429Z" fill="#F15538"/>
<path d="M5.94303 18.3159V31.2519C5.94303 35.3363 7.56553 39.2533 10.4536 42.1414C13.3417 45.0294 17.2587 46.6519 21.343 46.6519V46.6519V23.5729C21.343 21.5308 20.5318 19.5722 19.0878 18.1282C17.6437 16.6842 15.6852 15.8729 13.643 15.8729H8.40003C8.07752 15.8692 7.7575 15.9298 7.45864 16.051C7.15978 16.1723 6.88806 16.3519 6.65935 16.5793C6.43063 16.8067 6.2495 17.0774 6.12651 17.3756C6.00353 17.6737 5.94115 17.9934 5.94303 18.3159V18.3159Z" fill="url(#paint3_linear_147_5344)"/>
<path d="M31.213 24.3429L27.076 20.1989L21.315 25.9599L15.547 20.1989L11.41 24.3429L17.171 30.1039L11.41 35.8649L15.547 40.0089L21.315 34.2409L27.076 40.0089L31.213 35.8649L25.452 30.1039L31.213 24.3429Z" fill="#E64418"/>
</g>
<defs>
<linearGradient id="paint0_linear_147_5344" x1="184.755" y1="184.601" x2="284.455" y2="85.0531" gradientUnits="userSpaceOnUse">
<stop stop-color="#0049B0"/>
<stop offset="1" stop-color="#0065FF"/>
</linearGradient>
<linearGradient id="paint1_linear_147_5344" x1="21.224" y1="14.3189" x2="27.188" y2="8.35493" gradientUnits="userSpaceOnUse">
<stop stop-color="#0065FF"/>
<stop offset="1" stop-color="#66A3FF"/>
</linearGradient>
<linearGradient id="paint2_linear_147_5344" x1="16.345" y1="41.6539" x2="38.682" y2="19.3169" gradientUnits="userSpaceOnUse">
<stop stop-color="#0065FF"/>
<stop offset="0.72" stop-color="#66A3FF"/>
</linearGradient>
<linearGradient id="paint3_linear_147_5344" x1="6.95803" y1="38.6299" x2="23.261" y2="22.3339" gradientUnits="userSpaceOnUse">
<stop stop-color="#0049B0"/>
<stop offset="1" stop-color="#0065FF"/>
</linearGradient>
<clipPath id="clip0_147_5344">
<rect width="42.623" height="45.955" fill="white" transform="translate(0 0.661911)"/>
</clipPath>
</defs>
</svg>
