<svg width="77" height="49" viewBox="0 0 77 49" fill="none" xmlns="http://www.w3.org/2000/svg">
<path d="M16.9213 10.9511C18.0773 10.9511 19.0144 10.0139 19.0144 8.85791C19.0144 7.7019 18.0773 6.76477 16.9213 6.76477C15.7653 6.76477 14.8281 7.7019 14.8281 8.85791C14.8281 10.0139 15.7653 10.9511 16.9213 10.9511Z" fill="url(#paint0_linear_1420_29407)"/>
<path d="M60.098 31.0701C61.8736 31.0701 63.3131 29.6306 63.3131 27.8549C63.3131 26.0792 61.8736 24.6398 60.098 24.6398C58.3223 24.6398 56.8828 26.0792 56.8828 27.8549C56.8828 29.6306 58.3223 31.0701 60.098 31.0701Z" fill="url(#paint1_linear_1420_29407)"/>
<path d="M5.83621 13.8001C8.89981 13.8001 11.3833 11.3166 11.3833 8.25295C11.3833 5.18935 8.89981 2.70581 5.83621 2.70581C2.7726 2.70581 0.289062 5.18935 0.289062 8.25295C0.289062 11.3166 2.7726 13.8001 5.83621 13.8001Z" fill="url(#paint2_linear_1420_29407)"/>
<path d="M5.83603 10.2628C6.94604 10.2628 7.84589 9.36291 7.84589 8.2529C7.84589 7.14289 6.94604 6.24304 5.83603 6.24304C4.72602 6.24304 3.82617 7.14289 3.82617 8.2529C3.82617 9.36291 4.72602 10.2628 5.83603 10.2628Z" fill="#36B37E"/>
<path d="M33.5151 13.511L33.5169 13.5162L33.5151 13.511Z" fill="#FF991F"/>
<path d="M12.505 31.001C14.2478 30.2907 14.6469 26.601 15.398 26.0966C15.3636 25.9157 15.3384 25.7332 15.3226 25.5497C15.2912 25.0264 15.2802 25.0359 15.2818 24.7797C15.2817 22.9487 16.0081 21.1924 17.3013 19.8961C18.5946 18.5999 20.3493 17.8696 22.1803 17.8654C23.695 17.8594 25.1687 18.3569 26.3698 19.2797L26.7485 19.594L27.1649 19.9994L27.8453 14.3203L33.5025 13.4874L32.7168 12.7269L32.0096 12.1344C29.1989 9.93193 25.7276 8.7416 22.1568 8.75586C19.879 8.76079 17.6283 9.2508 15.5547 10.1933C13.481 11.1358 11.6319 12.5091 10.1303 14.2219C8.6288 15.9347 7.50928 17.9477 6.8463 20.1269C6.18332 22.3061 5.99209 24.6015 6.28533 26.8603C6.41502 27.7574 6.60773 28.6444 6.86204 29.5144C6.9689 29.8287 10.371 31.8951 12.505 31.001Z" fill="url(#paint3_linear_1420_29407)"/>
<path d="M61.8132 24.7609C61.8132 26.5917 61.0872 28.3477 59.7942 29.6439C58.5013 30.9401 56.747 31.6706 54.9162 31.6751C53.4015 31.6821 51.9275 31.1845 50.7268 30.2609L50.3465 29.9466L50.224 29.8397L44.559 30.6741L43.877 36.3721L44.3578 36.8436L45.0728 37.4391C47.8844 39.6423 51.3569 40.8327 54.9288 40.8177H54.9367C57.0418 40.8128 59.1254 40.3932 61.0684 39.5829C63.0114 38.7726 64.7757 37.5875 66.2607 36.0953C67.7456 34.6031 68.922 32.8329 69.7228 30.886C70.5235 28.9391 70.9329 26.8535 70.9275 24.7483" fill="url(#paint4_linear_1420_29407)"/>
<path d="M70.9326 24.7467C70.9345 22.4973 70.4611 20.2728 69.5435 18.219L67.0151 23.3528L61.3579 22.3126C61.6614 23.0929 61.8149 23.9236 61.8105 24.7609" fill="url(#paint5_linear_1420_29407)"/>
<path d="M61.365 22.3081L61.3634 22.3031L61.355 22.3065L61.365 22.3081Z" fill="url(#paint6_linear_1420_29407)"/>
<path d="M69.5401 18.2095L61.3687 22.3125L67.0258 23.3528L69.5542 18.2189L69.5401 18.2095Z" fill="url(#paint7_linear_1420_29407)"/>
<path d="M44.399 12.6733C44.3739 12.6938 44.3488 12.7142 44.3252 12.7362L44.1146 12.9326L38.5313 18.4326L29.2363 27.5359L35.885 33.7855L45.0433 24.8126L49.4826 20.4409L49.2123 14.4883L44.399 12.6733Z" fill="url(#paint8_linear_1420_29407)"/>
<path d="M67.5351 14.8876C64.9149 11.541 61.0728 9.37215 56.8538 8.85792C52.6348 8.34369 48.3842 9.52621 45.0369 12.1454C44.8138 12.3183 44.6032 12.4959 44.3989 12.6734L49.2122 14.4837L49.4825 20.4363L50.4144 19.5202L50.6532 19.3253C51.8621 18.3735 53.3574 17.8584 54.8961 17.8639C56.2975 17.8613 57.6665 18.2856 58.8209 19.0803C59.9752 19.875 60.8601 21.0025 61.3578 22.3126L67.0149 23.3529L69.5402 18.2096C69.0086 17.0253 68.3353 15.9098 67.5351 14.8876Z" fill="url(#paint9_linear_1420_29407)"/>
<path d="M25.4806 30.8972C24.4762 31.4391 23.3517 31.7201 22.2104 31.7144C20.7021 31.7199 19.2335 31.2312 18.0291 30.3231C16.8247 29.415 15.9509 28.1375 15.5413 26.6858L15.3574 25.9677L12.4032 30.9067L6.8623 29.5144L6.92359 29.7249C7.66258 32.0142 8.90737 34.1077 10.5657 35.8504C12.224 37.593 14.2533 38.9401 16.5031 39.7917C18.7529 40.6432 21.1655 40.9775 23.5621 40.7696C25.9586 40.5617 28.2777 39.8171 30.3473 38.5909L30.0754 32.6274L25.4806 30.8972Z" fill="url(#paint10_linear_1420_29407)"/>
<path d="M32.0255 24.8002L26.6952 30.066L26.4548 30.2609C26.1491 30.5019 25.8232 30.7159 25.4805 30.9005L30.0753 32.629L30.3472 38.5926C30.9422 38.2397 31.5133 37.8481 32.0569 37.4203C32.3068 37.227 32.5409 37.029 32.7703 36.8295L32.9793 36.633L38.539 31.1786L32.0255 24.8002Z" fill="url(#paint11_linear_1420_29407)"/>
<path d="M32.7734 32.233L46.3679 18.8994" stroke="url(#paint12_linear_1420_29407)" stroke-width="2.03343" stroke-miterlimit="10" stroke-linecap="round"/>
<path d="M33.5058 13.4874L27.8455 14.3234L27.165 20.0026L28.4112 21.365L32.0789 24.9526L38.4605 31.2147L38.4668 31.2084L43.8772 36.3596L44.5592 30.6616L50.2242 29.8271L48.7628 28.5511L38.4432 18.4516L33.5058 13.4874Z" fill="#0065FF"/>
<path d="M30.5702 16.1226L29.9998 15.5679L29.4797 15.1342C27.4315 13.5294 24.9018 12.6624 22.2998 12.6733C19.2045 12.6812 16.2389 13.9169 14.0537 16.1091C11.8685 18.3014 10.6424 21.271 10.6445 24.3663" stroke="url(#paint13_linear_1420_29407)" stroke-width="2.03343" stroke-miterlimit="10" stroke-linecap="round"/>
<path d="M63.8392 32.8804C68.1449 27.8236 67.6389 20.4269 62.582 16.1133C60.5497 14.3702 57.9894 13.3627 55.3142 13.2533H54.6165L53.7993 13.3083" stroke="url(#paint14_linear_1420_29407)" stroke-width="1.87314" stroke-miterlimit="10" stroke-linecap="round"/>
<path d="M64.5416 24.3664C64.4602 23.0946 64.1225 21.8525 63.549 20.7145C62.9754 19.5766 62.1777 18.5663 61.2038 17.7444C59.563 16.339 57.4964 15.5274 55.3377 15.4407H54.7751L54.1167 15.4847" stroke="url(#paint15_linear_1420_29407)" stroke-width="0.509143" stroke-miterlimit="10" stroke-linecap="round"/>
<path d="M10.6615 24.9101C10.9982 24.9101 11.2712 24.6371 11.2712 24.3004C11.2712 23.9637 10.9982 23.6907 10.6615 23.6907C10.3247 23.6907 10.0518 23.9637 10.0518 24.3004C10.0518 24.6371 10.3247 24.9101 10.6615 24.9101Z" fill="#00C7E5"/>
<path d="M17.5371 32.0884C19.0016 32.9775 20.6876 33.4345 22.4006 33.4067C24.1136 33.3789 25.7838 32.8674 27.2187 31.9313" stroke="url(#paint16_linear_1420_29407)" stroke-width="1.87314" stroke-miterlimit="10" stroke-linecap="round"/>
<path d="M33.7148 22.6897L46.115 34.6561" stroke="url(#paint17_linear_1420_29407)" stroke-width="1.32157" stroke-miterlimit="10" stroke-linecap="round"/>
<path opacity="0.2" d="M33.0986 16.7119L38.7008 22.1176" stroke="url(#paint18_linear_1420_29407)" stroke-width="0.535857" stroke-miterlimit="10" stroke-linecap="round"/>
<path d="M27.1932 32.445C27.4744 32.445 27.7024 32.2171 27.7024 31.9359C27.7024 31.6547 27.4744 31.4268 27.1932 31.4268C26.912 31.4268 26.6841 31.6547 26.6841 31.9359C26.6841 32.2171 26.912 32.445 27.1932 32.445Z" fill="#FFE380"/>
<path d="M46.3441 19.5342C46.6808 19.5342 46.9538 19.2613 46.9538 18.9245C46.9538 18.5878 46.6808 18.3148 46.3441 18.3148C46.0074 18.3148 45.7344 18.5878 45.7344 18.9245C45.7344 19.2613 46.0074 19.5342 46.3441 19.5342Z" fill="#57D9A3"/>
<path opacity="0.5" d="M48.0088 29.9623L49.8222 31.5824C49.8222 31.5824 51.9311 33.6661 55.0456 33.41" stroke="url(#paint19_linear_1420_29407)" stroke-width="0.535857" stroke-miterlimit="10" stroke-linecap="round"/>
<path d="M25.1426 35.8929C23.6817 36.2697 22.1607 36.3543 20.667 36.1417C19.1733 35.9291 17.7363 35.4236 16.4386 34.6541C15.1408 33.8846 14.0078 32.8663 13.1047 31.6577C12.2015 30.4491 11.546 29.0741 11.1758 27.6115" stroke="url(#paint20_linear_1420_29407)" stroke-width="0.509143" stroke-miterlimit="10" stroke-linecap="round"/>
<path d="M63.891 33.4571C64.2277 33.4571 64.5007 33.1841 64.5007 32.8474C64.5007 32.5107 64.2277 32.2377 63.891 32.2377C63.5542 32.2377 63.2812 32.5107 63.2812 32.8474C63.2812 33.1841 63.5542 33.4571 63.891 33.4571Z" fill="#FFC400"/>
<path d="M44.756 43.5755C46.7686 43.5755 48.4001 41.944 48.4001 39.9314C48.4001 37.9188 46.7686 36.2872 44.756 36.2872C42.7434 36.2872 41.1118 37.9188 41.1118 39.9314C41.1118 41.944 42.7434 43.5755 44.756 43.5755Z" fill="url(#paint21_linear_1420_29407)"/>
<path d="M75.3892 17.8858C76.0297 17.8858 76.5489 17.3666 76.5489 16.7261C76.5489 16.0856 76.0297 15.5664 75.3892 15.5664C74.7487 15.5664 74.2295 16.0856 74.2295 16.7261C74.2295 17.3666 74.7487 17.8858 75.3892 17.8858Z" fill="url(#paint22_linear_1420_29407)"/>
<path d="M44.7559 41.3064C45.5153 41.3064 46.1309 40.6908 46.1309 39.9314C46.1309 39.172 45.5153 38.5564 44.7559 38.5564C43.9965 38.5564 43.3809 39.172 43.3809 39.9314C43.3809 40.6908 43.9965 41.3064 44.7559 41.3064Z" fill="#79F2C0"/>
<defs>
<linearGradient id="paint0_linear_1420_29407" x1="15.441" y1="10.3382" x2="18.4016" y2="7.37763" gradientUnits="userSpaceOnUse">
<stop stop-color="#79F2C0" stop-opacity="0.1"/>
<stop offset="1" stop-color="#79F2C0" stop-opacity="0.3"/>
</linearGradient>
<linearGradient id="paint1_linear_1420_29407" x1="2423.1" y1="1245.82" x2="2609.13" y2="1059.79" gradientUnits="userSpaceOnUse">
<stop stop-color="#79F2C0" stop-opacity="0.1"/>
<stop offset="1" stop-color="#79F2C0" stop-opacity="0.3"/>
</linearGradient>
<linearGradient id="paint2_linear_1420_29407" x1="135.417" y1="842.099" x2="689.244" y2="288.273" gradientUnits="userSpaceOnUse">
<stop stop-color="#79F2C0" stop-opacity="0.1"/>
<stop offset="1" stop-color="#79F2C0" stop-opacity="0.3"/>
</linearGradient>
<linearGradient id="paint3_linear_1420_29407" x1="4023.75" y1="-2432.54" x2="4038.16" y2="-2441.35" gradientUnits="userSpaceOnUse">
<stop stop-color="#0052CC"/>
<stop offset="0.43" stop-color="#004FC3"/>
<stop offset="1" stop-color="#0049B0"/>
</linearGradient>
<linearGradient id="paint4_linear_1420_29407" x1="67.2138" y1="27.7029" x2="46.9269" y2="38.1907" gradientUnits="userSpaceOnUse">
<stop stop-color="#0052CC"/>
<stop offset="0.14" stop-color="#005BE3"/>
<stop offset="0.31" stop-color="#0062F8"/>
<stop offset="0.42" stop-color="#0065FF"/>
<stop offset="0.72" stop-color="#1475FF"/>
<stop offset="0.96" stop-color="#2684FF"/>
</linearGradient>
<linearGradient id="paint5_linear_1420_29407" x1="14541" y1="-3538.46" x2="15921.1" y2="-3682.39" gradientUnits="userSpaceOnUse">
<stop stop-color="#0052CC"/>
<stop offset="0.14" stop-color="#005BE3"/>
<stop offset="0.31" stop-color="#0062F8"/>
<stop offset="0.42" stop-color="#0065FF"/>
<stop offset="0.72" stop-color="#1475FF"/>
<stop offset="0.96" stop-color="#2684FF"/>
</linearGradient>
<linearGradient id="paint6_linear_1420_29407" x1="65.4339" y1="15.0555" x2="60.94" y2="23.0568" gradientUnits="userSpaceOnUse">
<stop stop-color="#0052CC"/>
<stop offset="0.48" stop-color="#0065FF"/>
<stop offset="0.75" stop-color="#1475FF"/>
<stop offset="0.96" stop-color="#2684FF"/>
</linearGradient>
<linearGradient id="paint7_linear_1420_29407" x1="55.5159" y1="17.2263" x2="22.5617" y2="7.15956" gradientUnits="userSpaceOnUse">
<stop offset="0.02" stop-color="#2684FF"/>
<stop offset="0.11" stop-color="#2281FF"/>
<stop offset="0.21" stop-color="#1677FF"/>
<stop offset="0.3" stop-color="#0166FF"/>
<stop offset="0.31" stop-color="#0065FF"/>
<stop offset="0.32" stop-color="#0064FD"/>
<stop offset="0.53" stop-color="#005AE2"/>
<stop offset="0.71" stop-color="#0054D2"/>
<stop offset="0.85" stop-color="#0052CC"/>
</linearGradient>
<linearGradient id="paint8_linear_1420_29407" x1="51.069" y1="3.14546" x2="32.6188" y2="35.9814" gradientUnits="userSpaceOnUse">
<stop offset="0.1" stop-color="#2684FF"/>
<stop offset="0.24" stop-color="#1072FF"/>
<stop offset="0.35" stop-color="#0468FF"/>
<stop offset="1" stop-color="#0052CC"/>
</linearGradient>
<linearGradient id="paint9_linear_1420_29407" x1="60.9435" y1="8.69299" x2="42.4939" y2="41.5304" gradientUnits="userSpaceOnUse">
<stop offset="0.04" stop-color="#2684FF"/>
<stop offset="0.05" stop-color="#2382FF"/>
<stop offset="0.13" stop-color="#1072FF"/>
<stop offset="0.21" stop-color="#0468FF"/>
<stop offset="0.29" stop-color="#0065FF"/>
<stop offset="0.32" stop-color="#0063F9"/>
<stop offset="0.43" stop-color="#005BE5"/>
<stop offset="0.57" stop-color="#0056D7"/>
<stop offset="0.73" stop-color="#0053CF"/>
<stop offset="1" stop-color="#0052CC"/>
</linearGradient>
<linearGradient id="paint10_linear_1420_29407" x1="34.6174" y1="27.5324" x2="9.10996" y2="38.0226" gradientUnits="userSpaceOnUse">
<stop stop-color="#0065FF"/>
<stop offset="0.96" stop-color="#0065FF"/>
</linearGradient>
<linearGradient id="paint11_linear_1420_29407" x1="35.5849" y1="29.8841" x2="10.076" y2="40.3749" gradientUnits="userSpaceOnUse">
<stop offset="0.15" stop-color="#0052CC"/>
<stop offset="0.48" stop-color="#0065FF"/>
<stop offset="0.75" stop-color="#1475FF"/>
<stop offset="0.96" stop-color="#2684FF"/>
</linearGradient>
<linearGradient id="paint12_linear_1420_29407" x1="31.7567" y1="25.567" x2="47.3846" y2="25.567" gradientUnits="userSpaceOnUse">
<stop stop-color="#79F2C0" stop-opacity="0"/>
<stop offset="0.09" stop-color="#79F2C0" stop-opacity="0.03"/>
<stop offset="0.22" stop-color="#79F2C0" stop-opacity="0.1"/>
<stop offset="0.38" stop-color="#79F2C0" stop-opacity="0.23"/>
<stop offset="0.55" stop-color="#79F2C0" stop-opacity="0.41"/>
<stop offset="0.74" stop-color="#79F2C0" stop-opacity="0.63"/>
<stop offset="0.94" stop-color="#79F2C0" stop-opacity="0.91"/>
<stop offset="1" stop-color="#79F2C0"/>
</linearGradient>
<linearGradient id="paint13_linear_1420_29407" x1="9.62782" y1="18.5206" x2="31.587" y2="18.5206" gradientUnits="userSpaceOnUse">
<stop stop-color="#79F2C0"/>
<stop offset="0.06" stop-color="#79F2C0" stop-opacity="0.91"/>
<stop offset="0.26" stop-color="#79F2C0" stop-opacity="0.63"/>
<stop offset="0.45" stop-color="#79F2C0" stop-opacity="0.41"/>
<stop offset="0.62" stop-color="#79F2C0" stop-opacity="0.23"/>
<stop offset="0.78" stop-color="#79F2C0" stop-opacity="0.1"/>
<stop offset="0.91" stop-color="#79F2C0" stop-opacity="0.03"/>
<stop offset="1" stop-color="#79F2C0" stop-opacity="0"/>
</linearGradient>
<linearGradient id="paint14_linear_1420_29407" x1="67.738" y1="30.8804" x2="50.8603" y2="16.4456" gradientUnits="userSpaceOnUse">
<stop stop-color="#FFE380"/>
<stop offset="0.1" stop-color="#FFE380" stop-opacity="0.86"/>
<stop offset="0.29" stop-color="#FFE380" stop-opacity="0.6"/>
<stop offset="0.47" stop-color="#FFE380" stop-opacity="0.39"/>
<stop offset="0.63" stop-color="#FFE380" stop-opacity="0.22"/>
<stop offset="0.78" stop-color="#FFE380" stop-opacity="0.1"/>
<stop offset="0.91" stop-color="#FFE380" stop-opacity="0.03"/>
<stop offset="1" stop-color="#FFE380" stop-opacity="0"/>
</linearGradient>
<linearGradient id="paint15_linear_1420_29407" x1="64.9946" y1="25.3765" x2="54.1983" y2="16.1427" gradientUnits="userSpaceOnUse">
<stop stop-color="white"/>
<stop offset="0.1" stop-color="white" stop-opacity="0.86"/>
<stop offset="0.29" stop-color="white" stop-opacity="0.6"/>
<stop offset="0.47" stop-color="white" stop-opacity="0.39"/>
<stop offset="0.63" stop-color="white" stop-opacity="0.22"/>
<stop offset="0.78" stop-color="white" stop-opacity="0.1"/>
<stop offset="0.91" stop-color="white" stop-opacity="0.03"/>
<stop offset="1" stop-color="white" stop-opacity="0"/>
</linearGradient>
<linearGradient id="paint16_linear_1420_29407" x1="26366.9" y1="23900.4" x2="25838.2" y2="23577.6" gradientUnits="userSpaceOnUse">
<stop stop-color="#FFE380"/>
<stop offset="0.1" stop-color="#FFE380" stop-opacity="0.86"/>
<stop offset="0.29" stop-color="#FFE380" stop-opacity="0.6"/>
<stop offset="0.47" stop-color="#FFE380" stop-opacity="0.39"/>
<stop offset="0.63" stop-color="#FFE380" stop-opacity="0.22"/>
<stop offset="0.78" stop-color="#FFE380" stop-opacity="0.1"/>
<stop offset="0.91" stop-color="#FFE380" stop-opacity="0.03"/>
<stop offset="1" stop-color="#FFE380" stop-opacity="0"/>
</linearGradient>
<linearGradient id="paint17_linear_1420_29407" x1="39.9682" y1="31.6403" x2="39.9574" y2="18.3993" gradientUnits="userSpaceOnUse">
<stop stop-color="white" stop-opacity="0"/>
<stop offset="0.09" stop-color="white" stop-opacity="0.03"/>
<stop offset="0.22" stop-color="#FEFFFF" stop-opacity="0.1"/>
<stop offset="0.37" stop-color="#FEFEFE" stop-opacity="0.22"/>
<stop offset="0.54" stop-color="#FDFDFE" stop-opacity="0.39"/>
<stop offset="0.72" stop-color="#FCFDFD" stop-opacity="0.61"/>
<stop offset="0.91" stop-color="#FBFCFC" stop-opacity="0.87"/>
<stop offset="1" stop-color="#FAFBFC"/>
</linearGradient>
<linearGradient id="paint18_linear_1420_29407" x1="-11225.2" y1="-32300.6" x2="-11120.5" y2="-32122.8" gradientUnits="userSpaceOnUse">
<stop stop-color="white" stop-opacity="0"/>
<stop offset="0.09" stop-color="white" stop-opacity="0.03"/>
<stop offset="0.22" stop-color="#FEFFFF" stop-opacity="0.1"/>
<stop offset="0.37" stop-color="#FEFEFE" stop-opacity="0.22"/>
<stop offset="0.54" stop-color="#FDFDFE" stop-opacity="0.39"/>
<stop offset="0.72" stop-color="#FCFDFD" stop-opacity="0.61"/>
<stop offset="0.91" stop-color="#FBFCFC" stop-opacity="0.87"/>
<stop offset="1" stop-color="#FAFBFC"/>
</linearGradient>
<linearGradient id="paint19_linear_1420_29407" x1="49.6666" y1="28.6376" x2="53.3894" y2="34.7347" gradientUnits="userSpaceOnUse">
<stop stop-color="#FAFBFC"/>
<stop offset="0.09" stop-color="#FBFCFC" stop-opacity="0.87"/>
<stop offset="0.28" stop-color="#FCFDFD" stop-opacity="0.61"/>
<stop offset="0.46" stop-color="#FDFDFE" stop-opacity="0.39"/>
<stop offset="0.63" stop-color="#FEFEFE" stop-opacity="0.22"/>
<stop offset="0.78" stop-color="#FEFFFF" stop-opacity="0.1"/>
<stop offset="0.91" stop-color="white" stop-opacity="0.03"/>
<stop offset="1" stop-color="white" stop-opacity="0"/>
</linearGradient>
<linearGradient id="paint20_linear_1420_29407" x1="10.9196" y1="31.9344" x2="25.3956" y2="31.9344" gradientUnits="userSpaceOnUse">
<stop stop-color="white" stop-opacity="0"/>
<stop offset="0.09" stop-color="white" stop-opacity="0.03"/>
<stop offset="0.22" stop-color="white" stop-opacity="0.1"/>
<stop offset="0.37" stop-color="white" stop-opacity="0.22"/>
<stop offset="0.53" stop-color="white" stop-opacity="0.39"/>
<stop offset="0.71" stop-color="white" stop-opacity="0.6"/>
<stop offset="0.9" stop-color="white" stop-opacity="0.86"/>
<stop offset="1" stop-color="white"/>
</linearGradient>
<linearGradient id="paint21_linear_1420_29407" x1="1997.36" y1="1994.58" x2="2236.42" y2="1755.59" gradientUnits="userSpaceOnUse">
<stop stop-color="#79F2C0" stop-opacity="0.1"/>
<stop offset="1" stop-color="#79F2C0" stop-opacity="0.3"/>
</linearGradient>
<linearGradient id="paint22_linear_1420_29407" x1="1174.89" y1="270.332" x2="1199.08" y2="246.141" gradientUnits="userSpaceOnUse">
<stop stop-color="#79F2C0" stop-opacity="0.1"/>
<stop offset="1" stop-color="#79F2C0" stop-opacity="0.3"/>
</linearGradient>
</defs>
</svg>
