<svg xmlns="http://www.w3.org/2000/svg" xmlns:xlink="http://www.w3.org/1999/xlink" viewBox="0 0 246.78 157.93"><defs><style>.cls-1{isolation:isolate;}.cls-2{fill:#cfd4db;}.cls-3{fill:#0065ff;}.cls-4{fill:#fff;}.cls-5{fill:#66a3ff;}.cls-11,.cls-13,.cls-16,.cls-6,.cls-8{fill:none;}.cls-6{stroke:#66a3ff;}.cls-13,.cls-16,.cls-6,.cls-8{stroke-width:2px;}.cls-7{fill:#3384ff;}.cls-8{stroke:#cfd4db;}.cls-9{fill:#fafbfc;}.cls-10{fill:#b3bac5;opacity:0.63;}.cls-10,.cls-12{mix-blend-mode:multiply;}.cls-11{stroke:#97a0af;stroke-width:3.62px;}.cls-13{stroke:#a5adba;stroke-miterlimit:10;stroke-dasharray:10 10;}.cls-14{fill:#a5adba;}.cls-15{fill:url(#linear-gradient);}.cls-16{stroke:#fff;}</style><linearGradient id="linear-gradient" x1="86.56" y1="139.61" x2="161.24" y2="64.93" gradientUnits="userSpaceOnUse"><stop offset="0" stop-color="#64e6a4"/><stop offset="0.21" stop-color="#69e7a7"/><stop offset="0.47" stop-color="#78ebb1"/><stop offset="0.75" stop-color="#91f1c1"/><stop offset="1" stop-color="#adf8d3"/></linearGradient></defs><title>JIRA Board</title><g class="cls-1"><g id="Layer_2" data-name="Layer 2"><g id="Software"><path id="_Compound_Path_" data-name="&lt;Compound Path&gt;" class="cls-2" d="M116.41,157.93H1.73A1.73,1.73,0,0,1,0,156.2V1.73A1.73,1.73,0,0,1,1.73,0H116.41a1.73,1.73,0,0,1,1.73,1.73V156.2A1.73,1.73,0,0,1,116.41,157.93Zm130.37-1.73V1.73A1.73,1.73,0,0,0,245,0H130.37a1.73,1.73,0,0,0-1.73,1.73V156.2a1.73,1.73,0,0,0,1.73,1.73H245A1.73,1.73,0,0,0,246.78,156.2Z"/><rect class="cls-3" x="108.74" y="19.89" width="157.93" height="118.14" rx="1.73" ry="1.73" transform="translate(266.67 -108.74) rotate(90)"/><rect class="cls-4" x="134.15" y="7.3" width="107.12" height="44.28" rx="1.73" ry="1.73"/><circle class="cls-5" cx="227.15" cy="18.77" r="8.38"/><line class="cls-6" x1="139.71" y1="14.14" x2="203.46" y2="14.14"/><line class="cls-6" x1="139.71" y1="21.77" x2="203.46" y2="21.77"/><line class="cls-6" x1="139.71" y1="41.2" x2="177.46" y2="41.2"/><rect class="cls-4" x="134.15" y="56.82" width="107.12" height="44.28" rx="1.73" ry="1.73"/><circle class="cls-5" cx="227.15" cy="68.29" r="8.38"/><line class="cls-6" x1="139.71" y1="63.66" x2="203.46" y2="63.66"/><line class="cls-6" x1="139.71" y1="71.29" x2="203.46" y2="71.29"/><rect class="cls-7" x="135.26" y="107.69" width="104.97" height="43.4"/><rect class="cls-4" x="5.54" y="7.3" width="107.12" height="44.28" rx="1.73" ry="1.73"/><circle class="cls-2" cx="98.55" cy="18.77" r="8.38"/><line class="cls-8" x1="11.1" y1="14.14" x2="74.85" y2="14.14"/><line class="cls-8" x1="11.1" y1="21.77" x2="74.85" y2="21.77"/><rect class="cls-9" x="6.61" y="57.27" width="104.97" height="43.4"/><path class="cls-10" d="M163.19,91.61H128.64v44.28h34.56a1.73,1.73,0,0,0,1.73-1.73V93.34A1.73,1.73,0,0,0,163.19,91.61Z"/><path class="cls-10" d="M118.14,91.61H59.54a1.73,1.73,0,0,0-1.73,1.73v40.82a1.73,1.73,0,0,0,1.73,1.73h58.6Z"/><line class="cls-11" x1="139.71" y1="90.72" x2="177.46" y2="90.72"/><g class="cls-12"><path class="cls-13" d="M133.59,111.88c3.71,11.79,3,19.51,15.56,26.23,12.93,6.9,25.33,5.71,33.73,4.47,17.5-2.58,29.86-11.57,36.33-17.28"/><polygon class="cls-14" points="219.39 135.78 217.4 135.54 218.57 125.75 208.72 125.3 208.81 123.3 220.81 123.85 219.39 135.78"/></g><g class="cls-12"><path class="cls-13" d="M40.05,79.19A50.37,50.37,0,0,1,61.91,66.08c3.6-1,22.47-6,40.25,5.79,16.37,10.86,20.12,28.16,21,34.47"/><polygon class="cls-14" points="113.82 101.2 115.03 99.61 122.86 105.6 128.27 97.35 129.94 98.45 123.36 108.5 113.82 101.2"/></g><rect id="_Rectangle_" data-name="&lt;Rectangle&gt;" class="cls-15" x="70.34" y="80.13" width="107.12" height="44.28" rx="1.73" ry="1.73"/><circle class="cls-4" cx="163.35" cy="91.6" r="8.38"/><line class="cls-16" x1="75.9" y1="86.96" x2="139.65" y2="86.96"/><line class="cls-16" x1="75.9" y1="94.6" x2="139.65" y2="94.6"/><line class="cls-16" x1="75.9" y1="114.03" x2="113.65" y2="114.03"/></g></g></g></svg>