<svg xmlns="http://www.w3.org/2000/svg" xmlns:xlink="http://www.w3.org/1999/xlink" viewBox="0 0 237.56 180.29"><defs><style>.cls-1{fill:#64e6a4;}.cls-2{fill:url(#N300);}.cls-3{fill:#0065ff;}.cls-4{fill:url(#linear-gradient);}.cls-5{fill:url(#linear-gradient-2);}.cls-6{fill:url(#linear-gradient-3);}</style><linearGradient id="N300" x1="25.88" y1="140.49" x2="186.16" y2="140.49" gradientUnits="userSpaceOnUse"><stop offset="0" stop-color="#6c798f"/><stop offset="1" stop-color="#6c798f" stop-opacity="0.1"/></linearGradient><linearGradient id="linear-gradient" y1="160.25" x2="104.4" y2="160.25" gradientUnits="userSpaceOnUse"><stop offset="0" stop-color="#99c1ff" stop-opacity="0"/><stop offset="0.01" stop-color="#93beff" stop-opacity="0.04"/><stop offset="0.05" stop-color="#78adff" stop-opacity="0.22"/><stop offset="0.09" stop-color="#5e9eff" stop-opacity="0.38"/><stop offset="0.14" stop-color="#4790ff" stop-opacity="0.53"/><stop offset="0.2" stop-color="#3484ff" stop-opacity="0.66"/><stop offset="0.25" stop-color="#247aff" stop-opacity="0.77"/><stop offset="0.32" stop-color="#1672ff" stop-opacity="0.85"/><stop offset="0.4" stop-color="#0c6cff" stop-opacity="0.92"/><stop offset="0.49" stop-color="#0568ff" stop-opacity="0.97"/><stop offset="0.63" stop-color="#0166ff" stop-opacity="0.99"/><stop offset="1" stop-color="#0065ff"/></linearGradient><linearGradient id="linear-gradient-2" x1="0" y1="140.49" x2="104.4" y2="140.49" xlink:href="#linear-gradient"/><linearGradient id="linear-gradient-3" x1="0" y1="140.49" x2="104.4" y2="140.49" xlink:href="#linear-gradient"/></defs><title>Agile</title><g id="Layer_2" data-name="Layer 2"><g id="Software"><path class="cls-1" d="M236.54,138l-36.33-36.33a3.47,3.47,0,0,0-5.92,2.45v16.54H102.85v39.57H194.3v16.54a3.47,3.47,0,0,0,5.92,2.45l36.33-36.33A3.47,3.47,0,0,0,236.54,138Z"/><path class="cls-2" d="M127.94,120.71A40.32,40.32,0,0,1,106,127.17v33.11h31.5a80.62,80.62,0,0,0,41-39.57Z"/><path class="cls-3" d="M102.85,160.27V120.71A40.57,40.57,0,1,0,62.28,80.14H22.71a80.14,80.14,0,1,1,80.14,80.14Z"/><path class="cls-3" d="M183,80.14A80.14,80.14,0,0,0,23.13,71.88L9.75,70.67a3.06,3.06,0,0,0-2.62,5L37.69,112.3c1.08,1.3,3,1.47,3.4.39L77.72,82.12c3-1.75,1.93-5.15-.78-5.4l-14.38-1.3a40.57,40.57,0,1,1,40.29,45.27h1.55v39.53A80.21,80.21,0,0,0,183,80.14Z"/><path class="cls-4" d="M104.4,160.27v0c-.52,0-1,0-1.55,0Z"/><rect class="cls-5" y="120.71" width="102.85" height="39.57"/><path class="cls-3" d="M102.85,120.71v39.57c.52,0,1,0,1.55,0V120.71Z"/><path class="cls-6" d="M102.85,120.71v39.57c.52,0,1,0,1.55,0V120.71Z"/></g></g></svg>